<svg width="33" height="33" viewBox="0 0 33 33" fill="none" xmlns="http://www.w3.org/2000/svg">
<path fill-rule="evenodd" clip-rule="evenodd" d="M16.5 0.703125C25.3366 0.703125 32.5 7.86657 32.5 16.7031C32.5 25.5397 25.3366 32.7031 16.5 32.7031C7.66344 32.7031 0.5 25.5397 0.5 16.7031C0.5 7.86657 7.66344 0.703125 16.5 0.703125ZM22.935 12.4102C22.5445 12.0197 21.9113 12.0197 21.5208 12.4102L15.1561 18.7735L11.6213 15.2387C11.2308 14.8481 10.5976 14.8481 10.2071 15.2387C9.81658 15.6292 9.81658 16.2623 10.2071 16.6529L14.4497 20.8955C14.8403 21.286 15.4734 21.286 15.864 20.8955C15.868 20.8915 15.872 20.8874 15.876 20.8833L22.935 13.8244C23.3256 13.4339 23.3256 12.8008 22.935 12.4102Z" fill="#C01C1C"/>
</svg>
